<svg width="10" height="10" viewBox="0 0 10 10" fill="none" xmlns="http://www.w3.org/2000/svg">
<path d="M9.50001 5.395C9.42136 6.2461 9.10194 7.0572 8.57913 7.73339C8.05633 8.40958 7.35176 8.9229 6.54786 9.21327C5.74397 9.50364 4.874 9.55906 4.03976 9.37305C3.20552 9.18703 2.44151 8.76727 1.83712 8.16289C1.23274 7.5585 0.812981 6.79449 0.626965 5.96025C0.440949 5.12601 0.49637 4.25604 0.786742 3.45215C1.07711 2.64825 1.59043 1.94368 2.26662 1.42088C2.94281 0.89807 3.75391 0.578653 4.60501 0.5C4.10672 1.17413 3.86694 2.00472 3.92928 2.84071C3.99162 3.67669 4.35194 4.46253 4.94471 5.0553C5.53748 5.64807 6.32332 6.00839 7.15931 6.07073C7.99529 6.13308 8.82588 5.89329 9.50001 5.395Z" stroke="#A8E0FF" stroke-linecap="round" stroke-linejoin="round"/>
</svg>
